<?xml version="1.0" encoding="utf-8"?>
<!-- Generator: Adobe Illustrator 23.0.3, SVG Export Plug-In . SVG Version: 6.00 Build 0)  -->
<svg version="1.1" id="Layer_1" xmlns="http://www.w3.org/2000/svg" xmlns:xlink="http://www.w3.org/1999/xlink" x="0px" y="0px"
	 viewBox="0 0 469 469" style="enable-background:new 0 0 469 469;" xml:space="preserve">
<style type="text/css">
	.st0{fill:#607D8B;}
	.st1{fill:#FAFAFA;}
</style>
<path class="st0" d="M451.9,120.5l-103-103C337.8,6.4,323.1,0.3,307.4,0.3H161.7c-15.7,0-30.4,6.1-41.4,17.2l-103.1,103
	C6.1,131.6,0,146.3,0,162v145.7c0,15.6,6.1,30.4,17.2,41.4l103,103c11.1,11.1,25.8,17.2,41.4,17.2h145.7c15.6,0,30.4-6.1,41.4-17.2
	l103-103c11.1-11.1,17.2-25.8,17.2-41.4V162C469,146.3,462.9,131.6,451.9,120.5z"/>
<path class="st1" d="M328.5,298.7c8.3,8.3,8.3,21.8,0,30.1c-4.2,4.2-9.6,6.2-15.1,6.2s-10.9-2.1-15.1-6.2l-64.1-64.1l-64.1,64.1
	c-4.2,4.2-9.6,6.2-15.1,6.2s-10.9-2.1-15.1-6.2c-8.3-8.3-8.3-21.8,0-30.1l64.1-64.1l-64.1-64.1c-8.3-8.3-8.3-21.8,0-30.1
	c8.3-8.3,21.8-8.3,30.1,0l64.1,64.1l64.1-64.1c8.3-8.3,21.8-8.3,30.1,0c8.3,8.3,8.3,21.8,0,30.1l-64.1,64.1L328.5,298.7z"/>
</svg>
